<svg width="25" height="25" viewBox="0 0 25 25" fill="none" xmlns="http://www.w3.org/2000/svg">
<path d="M11.1001 4.5H4.1001C3.56966 4.5 3.06096 4.71071 2.68588 5.08579C2.31081 5.46086 2.1001 5.96957 2.1001 6.5V20.5C2.1001 21.0304 2.31081 21.5391 2.68588 21.9142C3.06096 22.2893 3.56966 22.5 4.1001 22.5H18.1001C18.6305 22.5 19.1392 22.2893 19.5143 21.9142C19.8894 21.5391 20.1001 21.0304 20.1001 20.5V13.5" stroke="#FD5725" stroke-width="2" stroke-linecap="round" stroke-linejoin="round"/>
<path d="M18.6001 3C18.9979 2.60217 19.5375 2.37868 20.1001 2.37868C20.6627 2.37868 21.2023 2.60217 21.6001 3C21.9979 3.39782 22.2214 3.93739 22.2214 4.5C22.2214 5.06261 21.9979 5.60217 21.6001 6L12.1001 15.5L8.1001 16.5L9.1001 12.5L18.6001 3Z" stroke="#FD5725" stroke-width="2" stroke-linecap="round" stroke-linejoin="round"/>
</svg>
