<svg width="25" height="25" viewBox="0 0 25 25" fill="none" xmlns="http://www.w3.org/2000/svg">
<path d="M2.1356 12.8224C2.06652 12.6151 2.06645 12.3907 2.13541 12.1834C3.52378 8.00972 7.46084 5 12.1009 5C16.7387 5 20.6743 8.00692 22.0644 12.1776C22.1335 12.3849 22.1335 12.6093 22.0646 12.8166C20.6762 16.9903 16.7391 20 12.0991 20C7.46125 20 3.52569 16.9931 2.1356 12.8224Z" stroke="#FD5725" stroke-width="2" stroke-linecap="round" stroke-linejoin="round"/>
<path d="M15.1 12.5C15.1 14.1569 13.7569 15.5 12.1 15.5C10.4432 15.5 9.10005 14.1569 9.10005 12.5C9.10005 10.8431 10.4432 9.5 12.1 9.5C13.7569 9.5 15.1 10.8431 15.1 12.5Z" stroke="#FD5725" stroke-width="2" stroke-linecap="round" stroke-linejoin="round"/>
</svg>
